<svg xmlns="http://www.w3.org/2000/svg" xmlns:xlink="http://www.w3.org/1999/xlink" width="306" zoomAndPan="magnify" viewBox="0 0 229.5 30.000001" height="40" preserveAspectRatio="xMidYMid meet" version="1.0"><defs><g/><clipPath id="141ae422b1"><path d="M 3.460938 0 L 225.554688 0 L 225.554688 29.03125 L 3.460938 29.03125 Z M 3.460938 0 " clip-rule="nonzero"/></clipPath></defs><g clip-path="url(#141ae422b1)"><path fill="#ffffff" d="M 3.460938 0 L 226.039062 0 L 226.039062 36.371094 L 3.460938 36.371094 Z M 3.460938 0 " fill-opacity="1" fill-rule="nonzero"/><path fill="#ffffff" d="M 3.460938 0 L 226.039062 0 L 226.039062 29.09375 L 3.460938 29.09375 Z M 3.460938 0 " fill-opacity="1" fill-rule="nonzero"/><path fill="#ffffff" d="M 3.460938 0 L 226.039062 0 L 226.039062 29.09375 L 3.460938 29.09375 Z M 3.460938 0 " fill-opacity="1" fill-rule="nonzero"/></g><g fill="#000000" fill-opacity="1"><g transform="translate(10.943811, 18.548389)"><g><path d="M 6.5 -11.796875 C 7.882812 -11.796875 8.910156 -11.507812 9.578125 -10.9375 C 10.242188 -10.375 10.578125 -9.59375 10.578125 -8.59375 C 10.578125 -8.050781 10.441406 -7.582031 10.171875 -7.1875 C 9.898438 -6.800781 9.523438 -6.492188 9.046875 -6.265625 C 10.566406 -5.847656 11.328125 -4.898438 11.328125 -3.421875 C 11.328125 -2.296875 10.957031 -1.441406 10.21875 -0.859375 C 9.476562 -0.285156 8.425781 0 7.0625 0 L 1.328125 0 C 1.160156 0 1.035156 -0.0234375 0.953125 -0.078125 C 0.867188 -0.128906 0.804688 -0.226562 0.765625 -0.375 C 0.722656 -0.519531 0.703125 -0.734375 0.703125 -1.015625 C 0.703125 -1.296875 0.722656 -1.507812 0.765625 -1.65625 C 0.804688 -1.800781 0.867188 -1.898438 0.953125 -1.953125 C 1.035156 -2.003906 1.160156 -2.03125 1.328125 -2.03125 L 2.390625 -2.03125 L 2.390625 -9.765625 L 1.328125 -9.765625 C 1.160156 -9.765625 1.035156 -9.789062 0.953125 -9.84375 C 0.867188 -9.894531 0.804688 -9.992188 0.765625 -10.140625 C 0.722656 -10.285156 0.703125 -10.5 0.703125 -10.78125 C 0.703125 -11.050781 0.722656 -11.257812 0.765625 -11.40625 C 0.804688 -11.550781 0.867188 -11.648438 0.953125 -11.703125 C 1.035156 -11.765625 1.160156 -11.796875 1.328125 -11.796875 Z M 4.875 -7.09375 L 6.28125 -7.09375 C 6.875 -7.09375 7.316406 -7.195312 7.609375 -7.40625 C 7.898438 -7.625 8.046875 -7.953125 8.046875 -8.390625 C 8.046875 -8.835938 7.90625 -9.160156 7.625 -9.359375 C 7.34375 -9.554688 6.894531 -9.65625 6.28125 -9.65625 L 4.875 -9.65625 Z M 4.875 -2.140625 L 6.78125 -2.140625 C 8.0625 -2.140625 8.703125 -2.597656 8.703125 -3.515625 C 8.703125 -4.003906 8.546875 -4.363281 8.234375 -4.59375 C 7.921875 -4.832031 7.4375 -4.953125 6.78125 -4.953125 L 4.875 -4.953125 Z M 4.875 -2.140625 "/></g></g><g transform="translate(23.155969, 18.548389)"><g><path d="M 11.078125 -11.796875 C 11.242188 -11.796875 11.367188 -11.765625 11.453125 -11.703125 C 11.535156 -11.648438 11.597656 -11.550781 11.640625 -11.40625 C 11.679688 -11.257812 11.703125 -11.050781 11.703125 -10.78125 C 11.703125 -10.5 11.679688 -10.285156 11.640625 -10.140625 C 11.597656 -9.992188 11.535156 -9.894531 11.453125 -9.84375 C 11.367188 -9.789062 11.242188 -9.765625 11.078125 -9.765625 L 10.609375 -9.765625 L 10.609375 -4.109375 C 10.609375 -3.191406 10.425781 -2.40625 10.0625 -1.75 C 9.707031 -1.101562 9.191406 -0.613281 8.515625 -0.28125 C 7.835938 0.0507812 7.035156 0.21875 6.109375 0.21875 C 5.179688 0.21875 4.378906 0.0507812 3.703125 -0.28125 C 3.023438 -0.613281 2.503906 -1.101562 2.140625 -1.75 C 1.773438 -2.40625 1.59375 -3.191406 1.59375 -4.109375 L 1.59375 -9.765625 L 1.125 -9.765625 C 0.96875 -9.765625 0.84375 -9.789062 0.75 -9.84375 C 0.664062 -9.894531 0.601562 -9.992188 0.5625 -10.140625 C 0.519531 -10.285156 0.5 -10.5 0.5 -10.78125 C 0.5 -11.050781 0.519531 -11.257812 0.5625 -11.40625 C 0.601562 -11.550781 0.664062 -11.648438 0.75 -11.703125 C 0.84375 -11.765625 0.96875 -11.796875 1.125 -11.796875 L 4.84375 -11.796875 C 5 -11.796875 5.117188 -11.765625 5.203125 -11.703125 C 5.296875 -11.648438 5.363281 -11.550781 5.40625 -11.40625 C 5.445312 -11.257812 5.46875 -11.050781 5.46875 -10.78125 C 5.46875 -10.5 5.445312 -10.285156 5.40625 -10.140625 C 5.363281 -9.992188 5.296875 -9.894531 5.203125 -9.84375 C 5.117188 -9.789062 5 -9.765625 4.84375 -9.765625 L 4.078125 -9.765625 L 4.078125 -4.296875 C 4.078125 -3.535156 4.257812 -2.96875 4.625 -2.59375 C 4.988281 -2.21875 5.484375 -2.03125 6.109375 -2.03125 C 6.722656 -2.03125 7.210938 -2.21875 7.578125 -2.59375 C 7.941406 -2.96875 8.125 -3.535156 8.125 -4.296875 L 8.125 -9.765625 L 7.359375 -9.765625 C 7.203125 -9.765625 7.082031 -9.789062 7 -9.84375 C 6.914062 -9.894531 6.847656 -9.992188 6.796875 -10.140625 C 6.753906 -10.285156 6.734375 -10.5 6.734375 -10.78125 C 6.734375 -11.050781 6.753906 -11.257812 6.796875 -11.40625 C 6.847656 -11.550781 6.914062 -11.648438 7 -11.703125 C 7.082031 -11.765625 7.203125 -11.796875 7.359375 -11.796875 Z M 11.078125 -11.796875 "/></g></g><g transform="translate(35.368127, 18.548389)"><g><path d="M 6.46875 -11.796875 C 7.863281 -11.796875 8.9375 -11.488281 9.6875 -10.875 C 10.4375 -10.257812 10.8125 -9.363281 10.8125 -8.1875 C 10.8125 -6.65625 9.988281 -5.691406 8.34375 -5.296875 C 8.695312 -5.160156 8.984375 -4.957031 9.203125 -4.6875 C 9.335938 -4.5 9.460938 -4.304688 9.578125 -4.109375 C 9.691406 -3.921875 9.828125 -3.675781 9.984375 -3.375 C 10.140625 -3.0625 10.257812 -2.832031 10.34375 -2.6875 C 10.476562 -2.46875 10.609375 -2.300781 10.734375 -2.1875 C 10.867188 -2.082031 11.019531 -2.03125 11.1875 -2.03125 L 11.375 -2.03125 C 11.539062 -2.03125 11.664062 -2.003906 11.75 -1.953125 C 11.832031 -1.898438 11.894531 -1.800781 11.9375 -1.65625 C 11.988281 -1.507812 12.015625 -1.296875 12.015625 -1.015625 C 12.015625 -0.734375 11.988281 -0.519531 11.9375 -0.375 C 11.894531 -0.226562 11.832031 -0.128906 11.75 -0.078125 C 11.664062 -0.0234375 11.539062 0 11.375 0 L 10.421875 0 C 9.898438 0 9.472656 -0.101562 9.140625 -0.3125 C 8.816406 -0.53125 8.519531 -0.882812 8.25 -1.375 C 8.113281 -1.613281 7.957031 -1.9375 7.78125 -2.34375 C 7.644531 -2.644531 7.515625 -2.90625 7.390625 -3.125 C 7.273438 -3.34375 7.144531 -3.5625 7 -3.78125 C 6.789062 -4.0625 6.5625 -4.265625 6.3125 -4.390625 C 6.0625 -4.515625 5.757812 -4.578125 5.40625 -4.578125 L 4.765625 -4.578125 L 4.765625 -2.03125 L 5.734375 -2.03125 C 5.890625 -2.03125 6.007812 -2.003906 6.09375 -1.953125 C 6.1875 -1.898438 6.253906 -1.800781 6.296875 -1.65625 C 6.335938 -1.507812 6.359375 -1.296875 6.359375 -1.015625 C 6.359375 -0.734375 6.335938 -0.519531 6.296875 -0.375 C 6.253906 -0.226562 6.1875 -0.128906 6.09375 -0.078125 C 6.007812 -0.0234375 5.890625 0 5.734375 0 L 1.21875 0 C 1.0625 0 0.9375 -0.0234375 0.84375 -0.078125 C 0.757812 -0.128906 0.695312 -0.226562 0.65625 -0.375 C 0.613281 -0.519531 0.59375 -0.734375 0.59375 -1.015625 C 0.59375 -1.296875 0.613281 -1.507812 0.65625 -1.65625 C 0.695312 -1.800781 0.757812 -1.898438 0.84375 -1.953125 C 0.9375 -2.003906 1.0625 -2.03125 1.21875 -2.03125 L 2.28125 -2.03125 L 2.28125 -9.765625 L 1.21875 -9.765625 C 1.0625 -9.765625 0.9375 -9.789062 0.84375 -9.84375 C 0.757812 -9.894531 0.695312 -9.992188 0.65625 -10.140625 C 0.613281 -10.285156 0.59375 -10.5 0.59375 -10.78125 C 0.59375 -11.050781 0.613281 -11.257812 0.65625 -11.40625 C 0.695312 -11.550781 0.757812 -11.648438 0.84375 -11.703125 C 0.9375 -11.765625 1.0625 -11.796875 1.21875 -11.796875 Z M 4.765625 -6.71875 L 6.25 -6.71875 C 6.925781 -6.71875 7.425781 -6.835938 7.75 -7.078125 C 8.070312 -7.328125 8.234375 -7.695312 8.234375 -8.1875 C 8.234375 -8.6875 8.070312 -9.054688 7.75 -9.296875 C 7.425781 -9.535156 6.925781 -9.65625 6.25 -9.65625 L 4.765625 -9.65625 Z M 4.765625 -6.71875 "/></g></g><g transform="translate(47.580286, 18.548389)"><g><path d="M 6.5 -11.796875 C 7.882812 -11.796875 8.910156 -11.507812 9.578125 -10.9375 C 10.242188 -10.375 10.578125 -9.59375 10.578125 -8.59375 C 10.578125 -8.050781 10.441406 -7.582031 10.171875 -7.1875 C 9.898438 -6.800781 9.523438 -6.492188 9.046875 -6.265625 C 10.566406 -5.847656 11.328125 -4.898438 11.328125 -3.421875 C 11.328125 -2.296875 10.957031 -1.441406 10.21875 -0.859375 C 9.476562 -0.285156 8.425781 0 7.0625 0 L 1.328125 0 C 1.160156 0 1.035156 -0.0234375 0.953125 -0.078125 C 0.867188 -0.128906 0.804688 -0.226562 0.765625 -0.375 C 0.722656 -0.519531 0.703125 -0.734375 0.703125 -1.015625 C 0.703125 -1.296875 0.722656 -1.507812 0.765625 -1.65625 C 0.804688 -1.800781 0.867188 -1.898438 0.953125 -1.953125 C 1.035156 -2.003906 1.160156 -2.03125 1.328125 -2.03125 L 2.390625 -2.03125 L 2.390625 -9.765625 L 1.328125 -9.765625 C 1.160156 -9.765625 1.035156 -9.789062 0.953125 -9.84375 C 0.867188 -9.894531 0.804688 -9.992188 0.765625 -10.140625 C 0.722656 -10.285156 0.703125 -10.5 0.703125 -10.78125 C 0.703125 -11.050781 0.722656 -11.257812 0.765625 -11.40625 C 0.804688 -11.550781 0.867188 -11.648438 0.953125 -11.703125 C 1.035156 -11.765625 1.160156 -11.796875 1.328125 -11.796875 Z M 4.875 -7.09375 L 6.28125 -7.09375 C 6.875 -7.09375 7.316406 -7.195312 7.609375 -7.40625 C 7.898438 -7.625 8.046875 -7.953125 8.046875 -8.390625 C 8.046875 -8.835938 7.90625 -9.160156 7.625 -9.359375 C 7.34375 -9.554688 6.894531 -9.65625 6.28125 -9.65625 L 4.875 -9.65625 Z M 4.875 -2.140625 L 6.78125 -2.140625 C 8.0625 -2.140625 8.703125 -2.597656 8.703125 -3.515625 C 8.703125 -4.003906 8.546875 -4.363281 8.234375 -4.59375 C 7.921875 -4.832031 7.4375 -4.953125 6.78125 -4.953125 L 4.875 -4.953125 Z M 4.875 -2.140625 "/></g></g><g transform="translate(59.792444, 18.548389)"><g><path d="M 6.921875 -11.796875 C 7.191406 -11.796875 7.410156 -11.742188 7.578125 -11.640625 C 7.742188 -11.535156 7.863281 -11.375 7.9375 -11.15625 L 10.8125 -2.03125 L 11.6875 -2.03125 C 11.84375 -2.03125 11.960938 -2.003906 12.046875 -1.953125 C 12.128906 -1.898438 12.191406 -1.800781 12.234375 -1.65625 C 12.285156 -1.507812 12.3125 -1.300781 12.3125 -1.03125 C 12.3125 -0.75 12.285156 -0.535156 12.234375 -0.390625 C 12.191406 -0.242188 12.128906 -0.140625 12.046875 -0.078125 C 11.960938 -0.0234375 11.84375 0 11.6875 0 L 7.46875 0 C 7.3125 0 7.1875 -0.0234375 7.09375 -0.078125 C 7.007812 -0.140625 6.945312 -0.242188 6.90625 -0.390625 C 6.863281 -0.535156 6.84375 -0.75 6.84375 -1.03125 C 6.84375 -1.300781 6.863281 -1.507812 6.90625 -1.65625 C 6.945312 -1.800781 7.007812 -1.898438 7.09375 -1.953125 C 7.1875 -2.003906 7.3125 -2.03125 7.46875 -2.03125 L 8.328125 -2.03125 L 7.875 -3.484375 L 4.25 -3.484375 L 3.8125 -2.03125 L 4.546875 -2.03125 C 4.703125 -2.03125 4.820312 -2.003906 4.90625 -1.953125 C 5 -1.898438 5.066406 -1.800781 5.109375 -1.65625 C 5.148438 -1.507812 5.171875 -1.300781 5.171875 -1.03125 C 5.171875 -0.75 5.148438 -0.535156 5.109375 -0.390625 C 5.066406 -0.242188 5 -0.140625 4.90625 -0.078125 C 4.820312 -0.0234375 4.703125 0 4.546875 0 L 0.53125 0 C 0.363281 0 0.238281 -0.0234375 0.15625 -0.078125 C 0.0703125 -0.140625 0.0078125 -0.242188 -0.03125 -0.390625 C -0.0703125 -0.535156 -0.09375 -0.75 -0.09375 -1.03125 C -0.09375 -1.300781 -0.0703125 -1.507812 -0.03125 -1.65625 C 0.0078125 -1.800781 0.0703125 -1.898438 0.15625 -1.953125 C 0.238281 -2.003906 0.363281 -2.03125 0.53125 -2.03125 L 1.359375 -2.03125 L 3.875 -9.765625 L 2.21875 -9.765625 C 2.0625 -9.765625 1.9375 -9.789062 1.84375 -9.84375 C 1.757812 -9.90625 1.695312 -10.007812 1.65625 -10.15625 C 1.613281 -10.300781 1.59375 -10.507812 1.59375 -10.78125 C 1.59375 -11.0625 1.613281 -11.273438 1.65625 -11.421875 C 1.695312 -11.566406 1.757812 -11.664062 1.84375 -11.71875 C 1.9375 -11.769531 2.0625 -11.796875 2.21875 -11.796875 Z M 6.046875 -9.765625 L 4.828125 -5.515625 L 7.3125 -5.515625 L 6.109375 -9.765625 Z M 6.046875 -9.765625 "/></g></g><g transform="translate(72.004602, 18.548389)"><g><path d="M 11.28125 -11.796875 C 11.4375 -11.796875 11.554688 -11.765625 11.640625 -11.703125 C 11.734375 -11.648438 11.800781 -11.550781 11.84375 -11.40625 C 11.882812 -11.257812 11.90625 -11.050781 11.90625 -10.78125 C 11.90625 -10.5 11.882812 -10.285156 11.84375 -10.140625 C 11.800781 -9.992188 11.734375 -9.894531 11.640625 -9.84375 C 11.554688 -9.789062 11.4375 -9.765625 11.28125 -9.765625 L 10.71875 -9.765625 L 10.71875 -0.4375 C 10.71875 -0.21875 10.632812 -0.0546875 10.46875 0.046875 C 10.300781 0.160156 10.019531 0.21875 9.625 0.21875 C 9.320312 0.21875 9.09375 0.175781 8.9375 0.09375 C 8.789062 0.0078125 8.660156 -0.125 8.546875 -0.3125 L 4.078125 -7.71875 L 4.03125 -7.71875 L 4.03125 -2.03125 L 5.140625 -2.03125 C 5.296875 -2.03125 5.414062 -2.003906 5.5 -1.953125 C 5.59375 -1.898438 5.660156 -1.800781 5.703125 -1.65625 C 5.742188 -1.507812 5.765625 -1.296875 5.765625 -1.015625 C 5.765625 -0.734375 5.742188 -0.519531 5.703125 -0.375 C 5.660156 -0.226562 5.59375 -0.128906 5.5 -0.078125 C 5.414062 -0.0234375 5.296875 0 5.140625 0 L 1.125 0 C 0.96875 0 0.84375 -0.0234375 0.75 -0.078125 C 0.664062 -0.128906 0.601562 -0.226562 0.5625 -0.375 C 0.519531 -0.519531 0.5 -0.734375 0.5 -1.015625 C 0.5 -1.296875 0.519531 -1.507812 0.5625 -1.65625 C 0.601562 -1.800781 0.664062 -1.898438 0.75 -1.953125 C 0.84375 -2.003906 0.96875 -2.03125 1.125 -2.03125 L 1.796875 -2.03125 L 1.796875 -9.765625 L 1.125 -9.765625 C 0.96875 -9.765625 0.84375 -9.789062 0.75 -9.84375 C 0.664062 -9.894531 0.601562 -9.992188 0.5625 -10.140625 C 0.519531 -10.285156 0.5 -10.5 0.5 -10.78125 C 0.5 -11.050781 0.519531 -11.257812 0.5625 -11.40625 C 0.601562 -11.550781 0.664062 -11.648438 0.75 -11.703125 C 0.84375 -11.765625 0.96875 -11.796875 1.125 -11.796875 L 3.75 -11.796875 C 4.007812 -11.796875 4.191406 -11.707031 4.296875 -11.53125 L 8.4375 -4.703125 L 8.46875 -4.703125 L 8.46875 -9.765625 L 7.5625 -9.765625 C 7.394531 -9.765625 7.269531 -9.789062 7.1875 -9.84375 C 7.101562 -9.894531 7.035156 -9.992188 6.984375 -10.140625 C 6.941406 -10.285156 6.921875 -10.5 6.921875 -10.78125 C 6.921875 -11.050781 6.941406 -11.257812 6.984375 -11.40625 C 7.035156 -11.550781 7.101562 -11.648438 7.1875 -11.703125 C 7.269531 -11.765625 7.394531 -11.796875 7.5625 -11.796875 Z M 11.28125 -11.796875 "/></g></g><g transform="translate(84.21676, 18.548389)"><g><path d="M 11.234375 -11.796875 C 11.390625 -11.796875 11.507812 -11.765625 11.59375 -11.703125 C 11.6875 -11.648438 11.753906 -11.550781 11.796875 -11.40625 C 11.835938 -11.257812 11.859375 -11.050781 11.859375 -10.78125 C 11.859375 -10.5 11.835938 -10.285156 11.796875 -10.140625 C 11.753906 -9.992188 11.6875 -9.894531 11.59375 -9.84375 C 11.507812 -9.789062 11.390625 -9.765625 11.234375 -9.765625 L 10.8125 -9.765625 L 7.328125 -6.375 C 7.703125 -6.351562 8.039062 -6.25 8.34375 -6.0625 C 8.644531 -5.882812 8.910156 -5.632812 9.140625 -5.3125 C 9.285156 -5.09375 9.421875 -4.863281 9.546875 -4.625 C 9.679688 -4.394531 9.828125 -4.113281 9.984375 -3.78125 C 10.222656 -3.289062 10.390625 -2.960938 10.484375 -2.796875 C 10.628906 -2.554688 10.78125 -2.367188 10.9375 -2.234375 C 11.09375 -2.097656 11.273438 -2.03125 11.484375 -2.03125 L 11.578125 -2.03125 C 11.734375 -2.03125 11.851562 -2.003906 11.9375 -1.953125 C 12.03125 -1.898438 12.097656 -1.800781 12.140625 -1.65625 C 12.179688 -1.507812 12.203125 -1.296875 12.203125 -1.015625 C 12.203125 -0.734375 12.179688 -0.519531 12.140625 -0.375 C 12.097656 -0.226562 12.03125 -0.128906 11.9375 -0.078125 C 11.851562 -0.0234375 11.734375 0 11.578125 0 L 10.203125 0 C 9.796875 0 9.453125 -0.125 9.171875 -0.375 C 8.890625 -0.625 8.628906 -0.96875 8.390625 -1.40625 C 8.234375 -1.695312 8.070312 -2.03125 7.90625 -2.40625 C 7.789062 -2.65625 7.671875 -2.90625 7.546875 -3.15625 C 7.421875 -3.40625 7.304688 -3.613281 7.203125 -3.78125 C 7.023438 -4.039062 6.828125 -4.242188 6.609375 -4.390625 C 6.398438 -4.546875 6.1875 -4.625 5.96875 -4.625 C 5.675781 -4.625 5.410156 -4.507812 5.171875 -4.28125 L 4.671875 -3.78125 L 4.671875 -2.03125 L 5.8125 -2.03125 C 5.96875 -2.03125 6.085938 -2.003906 6.171875 -1.953125 C 6.265625 -1.898438 6.332031 -1.800781 6.375 -1.65625 C 6.414062 -1.507812 6.4375 -1.296875 6.4375 -1.015625 C 6.4375 -0.734375 6.414062 -0.519531 6.375 -0.375 C 6.332031 -0.226562 6.265625 -0.128906 6.171875 -0.078125 C 6.085938 -0.0234375 5.96875 0 5.8125 0 L 1.125 0 C 0.96875 0 0.84375 -0.0234375 0.75 -0.078125 C 0.664062 -0.128906 0.601562 -0.226562 0.5625 -0.375 C 0.519531 -0.519531 0.5 -0.734375 0.5 -1.015625 C 0.5 -1.296875 0.519531 -1.507812 0.5625 -1.65625 C 0.601562 -1.800781 0.664062 -1.898438 0.75 -1.953125 C 0.84375 -2.003906 0.96875 -2.03125 1.125 -2.03125 L 2.1875 -2.03125 L 2.1875 -9.765625 L 1.125 -9.765625 C 0.96875 -9.765625 0.84375 -9.789062 0.75 -9.84375 C 0.664062 -9.894531 0.601562 -9.992188 0.5625 -10.140625 C 0.519531 -10.285156 0.5 -10.5 0.5 -10.78125 C 0.5 -11.050781 0.519531 -11.257812 0.5625 -11.40625 C 0.601562 -11.550781 0.664062 -11.648438 0.75 -11.703125 C 0.84375 -11.765625 0.96875 -11.796875 1.125 -11.796875 L 5.140625 -11.796875 C 5.296875 -11.796875 5.414062 -11.765625 5.5 -11.703125 C 5.59375 -11.648438 5.660156 -11.550781 5.703125 -11.40625 C 5.742188 -11.257812 5.765625 -11.050781 5.765625 -10.78125 C 5.765625 -10.5 5.742188 -10.285156 5.703125 -10.140625 C 5.660156 -9.992188 5.59375 -9.894531 5.5 -9.84375 C 5.414062 -9.789062 5.296875 -9.765625 5.140625 -9.765625 L 4.671875 -9.765625 L 4.671875 -6.578125 L 7.890625 -9.765625 L 7.359375 -9.765625 C 7.203125 -9.765625 7.082031 -9.789062 7 -9.84375 C 6.914062 -9.894531 6.847656 -9.992188 6.796875 -10.140625 C 6.753906 -10.285156 6.734375 -10.5 6.734375 -10.78125 C 6.734375 -11.050781 6.753906 -11.257812 6.796875 -11.40625 C 6.847656 -11.550781 6.914062 -11.648438 7 -11.703125 C 7.082031 -11.765625 7.203125 -11.796875 7.359375 -11.796875 Z M 11.234375 -11.796875 "/></g></g><g transform="translate(96.428918, 18.548389)"><g/></g><g transform="translate(108.641076, 18.548389)"><g><path d="M 7.328125 -11.796875 C 7.484375 -11.796875 7.601562 -11.765625 7.6875 -11.703125 C 7.78125 -11.648438 7.847656 -11.550781 7.890625 -11.40625 C 7.929688 -11.257812 7.953125 -11.050781 7.953125 -10.78125 C 7.953125 -10.5 7.929688 -10.285156 7.890625 -10.140625 C 7.847656 -9.992188 7.78125 -9.894531 7.6875 -9.84375 C 7.601562 -9.789062 7.484375 -9.765625 7.328125 -9.765625 L 5.15625 -9.765625 L 5.15625 -2.140625 L 8.65625 -2.140625 L 8.65625 -5.234375 C 8.65625 -5.460938 8.753906 -5.625 8.953125 -5.71875 C 9.148438 -5.8125 9.488281 -5.859375 9.96875 -5.859375 C 10.269531 -5.859375 10.503906 -5.835938 10.671875 -5.796875 C 10.847656 -5.753906 10.96875 -5.691406 11.03125 -5.609375 C 11.101562 -5.523438 11.140625 -5.398438 11.140625 -5.234375 L 11.140625 -0.640625 C 11.140625 -0.421875 11.085938 -0.257812 10.984375 -0.15625 C 10.878906 -0.0507812 10.710938 0 10.484375 0 L 1.21875 0 C 1.0625 0 0.9375 -0.0234375 0.84375 -0.078125 C 0.757812 -0.128906 0.695312 -0.226562 0.65625 -0.375 C 0.613281 -0.519531 0.59375 -0.734375 0.59375 -1.015625 C 0.59375 -1.296875 0.613281 -1.507812 0.65625 -1.65625 C 0.695312 -1.800781 0.757812 -1.898438 0.84375 -1.953125 C 0.9375 -2.003906 1.0625 -2.03125 1.21875 -2.03125 L 2.671875 -2.03125 L 2.671875 -9.765625 L 1.21875 -9.765625 C 1.0625 -9.765625 0.9375 -9.789062 0.84375 -9.84375 C 0.757812 -9.894531 0.695312 -9.992188 0.65625 -10.140625 C 0.613281 -10.285156 0.59375 -10.5 0.59375 -10.78125 C 0.59375 -11.050781 0.613281 -11.257812 0.65625 -11.40625 C 0.695312 -11.550781 0.757812 -11.648438 0.84375 -11.703125 C 0.9375 -11.765625 1.0625 -11.796875 1.21875 -11.796875 Z M 7.328125 -11.796875 "/></g></g><g transform="translate(120.853234, 18.548389)"><g><path d="M 9.6875 -11.796875 C 9.851562 -11.796875 9.976562 -11.765625 10.0625 -11.703125 C 10.144531 -11.648438 10.207031 -11.550781 10.25 -11.40625 C 10.289062 -11.257812 10.3125 -11.050781 10.3125 -10.78125 C 10.3125 -10.5 10.289062 -10.285156 10.25 -10.140625 C 10.207031 -9.992188 10.144531 -9.894531 10.0625 -9.84375 C 9.976562 -9.789062 9.851562 -9.765625 9.6875 -9.765625 L 7.34375 -9.765625 L 7.34375 -2.03125 L 9.890625 -2.03125 C 10.046875 -2.03125 10.164062 -2.003906 10.25 -1.953125 C 10.34375 -1.898438 10.410156 -1.800781 10.453125 -1.65625 C 10.492188 -1.507812 10.515625 -1.296875 10.515625 -1.015625 C 10.515625 -0.734375 10.492188 -0.519531 10.453125 -0.375 C 10.410156 -0.226562 10.34375 -0.128906 10.25 -0.078125 C 10.164062 -0.0234375 10.046875 0 9.890625 0 L 2.3125 0 C 2.15625 0 2.03125 -0.0234375 1.9375 -0.078125 C 1.851562 -0.128906 1.789062 -0.226562 1.75 -0.375 C 1.707031 -0.519531 1.6875 -0.734375 1.6875 -1.015625 C 1.6875 -1.296875 1.707031 -1.507812 1.75 -1.65625 C 1.789062 -1.800781 1.851562 -1.898438 1.9375 -1.953125 C 2.03125 -2.003906 2.15625 -2.03125 2.3125 -2.03125 L 4.859375 -2.03125 L 4.859375 -9.765625 L 2.515625 -9.765625 C 2.359375 -9.765625 2.234375 -9.789062 2.140625 -9.84375 C 2.054688 -9.894531 1.992188 -9.992188 1.953125 -10.140625 C 1.910156 -10.285156 1.890625 -10.5 1.890625 -10.78125 C 1.890625 -11.050781 1.910156 -11.257812 1.953125 -11.40625 C 1.992188 -11.550781 2.054688 -11.648438 2.140625 -11.703125 C 2.234375 -11.765625 2.359375 -11.796875 2.515625 -11.796875 Z M 9.6875 -11.796875 "/></g></g><g transform="translate(133.065393, 18.548389)"><g><path d="M 11.6875 -11.796875 C 11.84375 -11.796875 11.960938 -11.765625 12.046875 -11.703125 C 12.128906 -11.648438 12.191406 -11.550781 12.234375 -11.40625 C 12.285156 -11.257812 12.3125 -11.050781 12.3125 -10.78125 C 12.3125 -10.5 12.285156 -10.285156 12.234375 -10.140625 C 12.191406 -9.992188 12.128906 -9.894531 12.046875 -9.84375 C 11.960938 -9.789062 11.84375 -9.765625 11.6875 -9.765625 L 11 -9.765625 L 7.390625 -0.421875 C 7.296875 -0.179688 7.15625 -0.015625 6.96875 0.078125 C 6.78125 0.171875 6.484375 0.21875 6.078125 0.21875 C 5.671875 0.21875 5.375 0.164062 5.1875 0.0625 C 5 -0.03125 4.859375 -0.191406 4.765625 -0.421875 L 1.296875 -9.765625 L 0.53125 -9.765625 C 0.363281 -9.765625 0.238281 -9.789062 0.15625 -9.84375 C 0.0703125 -9.894531 0.0078125 -9.992188 -0.03125 -10.140625 C -0.0703125 -10.285156 -0.09375 -10.5 -0.09375 -10.78125 C -0.09375 -11.050781 -0.0703125 -11.257812 -0.03125 -11.40625 C 0.0078125 -11.550781 0.0703125 -11.648438 0.15625 -11.703125 C 0.238281 -11.765625 0.363281 -11.796875 0.53125 -11.796875 L 4.84375 -11.796875 C 5 -11.796875 5.117188 -11.765625 5.203125 -11.703125 C 5.296875 -11.648438 5.363281 -11.550781 5.40625 -11.40625 C 5.445312 -11.257812 5.46875 -11.050781 5.46875 -10.78125 C 5.46875 -10.5 5.445312 -10.285156 5.40625 -10.140625 C 5.363281 -9.992188 5.296875 -9.894531 5.203125 -9.84375 C 5.117188 -9.789062 5 -9.765625 4.84375 -9.765625 L 3.953125 -9.765625 L 6.09375 -3.671875 L 8.375 -9.765625 L 7.671875 -9.765625 C 7.503906 -9.765625 7.378906 -9.789062 7.296875 -9.84375 C 7.210938 -9.894531 7.144531 -9.992188 7.09375 -10.140625 C 7.050781 -10.285156 7.03125 -10.5 7.03125 -10.78125 C 7.03125 -11.050781 7.050781 -11.257812 7.09375 -11.40625 C 7.144531 -11.550781 7.210938 -11.648438 7.296875 -11.703125 C 7.378906 -11.765625 7.503906 -11.796875 7.671875 -11.796875 Z M 11.6875 -11.796875 "/></g></g><g transform="translate(145.277551, 18.548389)"><g><path d="M 10.28125 -11.796875 C 10.519531 -11.796875 10.6875 -11.742188 10.78125 -11.640625 C 10.882812 -11.546875 10.9375 -11.382812 10.9375 -11.15625 L 10.9375 -8.15625 C 10.9375 -7.925781 10.835938 -7.765625 10.640625 -7.671875 C 10.453125 -7.578125 10.144531 -7.53125 9.71875 -7.53125 C 9.3125 -7.53125 9.03125 -7.570312 8.875 -7.65625 C 8.726562 -7.75 8.65625 -7.914062 8.65625 -8.15625 L 8.65625 -9.65625 L 4.671875 -9.65625 L 4.671875 -7.140625 L 7.09375 -7.140625 C 7.332031 -7.140625 7.492188 -7.0625 7.578125 -6.90625 C 7.671875 -6.757812 7.71875 -6.484375 7.71875 -6.078125 C 7.71875 -5.660156 7.671875 -5.378906 7.578125 -5.234375 C 7.492188 -5.085938 7.332031 -5.015625 7.09375 -5.015625 L 4.671875 -5.015625 L 4.671875 -2.140625 L 8.75 -2.140625 L 8.75 -4.140625 C 8.75 -4.367188 8.84375 -4.53125 9.03125 -4.625 C 9.226562 -4.71875 9.550781 -4.765625 10 -4.765625 C 10.4375 -4.765625 10.734375 -4.71875 10.890625 -4.625 C 11.054688 -4.539062 11.140625 -4.378906 11.140625 -4.140625 L 11.140625 -0.640625 C 11.140625 -0.421875 11.085938 -0.257812 10.984375 -0.15625 C 10.878906 -0.0507812 10.710938 0 10.484375 0 L 1.21875 0 C 1.0625 0 0.9375 -0.0234375 0.84375 -0.078125 C 0.757812 -0.128906 0.695312 -0.226562 0.65625 -0.375 C 0.613281 -0.519531 0.59375 -0.734375 0.59375 -1.015625 C 0.59375 -1.296875 0.613281 -1.507812 0.65625 -1.65625 C 0.695312 -1.800781 0.757812 -1.898438 0.84375 -1.953125 C 0.9375 -2.003906 1.0625 -2.03125 1.21875 -2.03125 L 2.1875 -2.03125 L 2.1875 -9.765625 L 1.21875 -9.765625 C 1.0625 -9.765625 0.9375 -9.789062 0.84375 -9.84375 C 0.757812 -9.894531 0.695312 -9.992188 0.65625 -10.140625 C 0.613281 -10.285156 0.59375 -10.5 0.59375 -10.78125 C 0.59375 -11.050781 0.613281 -11.257812 0.65625 -11.40625 C 0.695312 -11.550781 0.757812 -11.648438 0.84375 -11.703125 C 0.9375 -11.765625 1.0625 -11.796875 1.21875 -11.796875 Z M 10.28125 -11.796875 "/></g></g><g transform="translate(157.489709, 18.548389)"><g/></g><g transform="translate(169.701867, 18.548389)"><g><path d="M 11.28125 -11.796875 C 11.4375 -11.796875 11.554688 -11.765625 11.640625 -11.703125 C 11.734375 -11.648438 11.800781 -11.550781 11.84375 -11.40625 C 11.882812 -11.257812 11.90625 -11.050781 11.90625 -10.78125 C 11.90625 -10.5 11.882812 -10.285156 11.84375 -10.140625 C 11.800781 -9.992188 11.734375 -9.894531 11.640625 -9.84375 C 11.554688 -9.789062 11.4375 -9.765625 11.28125 -9.765625 L 10.71875 -9.765625 L 10.71875 -0.4375 C 10.71875 -0.21875 10.632812 -0.0546875 10.46875 0.046875 C 10.300781 0.160156 10.019531 0.21875 9.625 0.21875 C 9.320312 0.21875 9.09375 0.175781 8.9375 0.09375 C 8.789062 0.0078125 8.660156 -0.125 8.546875 -0.3125 L 4.078125 -7.71875 L 4.03125 -7.71875 L 4.03125 -2.03125 L 5.140625 -2.03125 C 5.296875 -2.03125 5.414062 -2.003906 5.5 -1.953125 C 5.59375 -1.898438 5.660156 -1.800781 5.703125 -1.65625 C 5.742188 -1.507812 5.765625 -1.296875 5.765625 -1.015625 C 5.765625 -0.734375 5.742188 -0.519531 5.703125 -0.375 C 5.660156 -0.226562 5.59375 -0.128906 5.5 -0.078125 C 5.414062 -0.0234375 5.296875 0 5.140625 0 L 1.125 0 C 0.96875 0 0.84375 -0.0234375 0.75 -0.078125 C 0.664062 -0.128906 0.601562 -0.226562 0.5625 -0.375 C 0.519531 -0.519531 0.5 -0.734375 0.5 -1.015625 C 0.5 -1.296875 0.519531 -1.507812 0.5625 -1.65625 C 0.601562 -1.800781 0.664062 -1.898438 0.75 -1.953125 C 0.84375 -2.003906 0.96875 -2.03125 1.125 -2.03125 L 1.796875 -2.03125 L 1.796875 -9.765625 L 1.125 -9.765625 C 0.96875 -9.765625 0.84375 -9.789062 0.75 -9.84375 C 0.664062 -9.894531 0.601562 -9.992188 0.5625 -10.140625 C 0.519531 -10.285156 0.5 -10.5 0.5 -10.78125 C 0.5 -11.050781 0.519531 -11.257812 0.5625 -11.40625 C 0.601562 -11.550781 0.664062 -11.648438 0.75 -11.703125 C 0.84375 -11.765625 0.96875 -11.796875 1.125 -11.796875 L 3.75 -11.796875 C 4.007812 -11.796875 4.191406 -11.707031 4.296875 -11.53125 L 8.4375 -4.703125 L 8.46875 -4.703125 L 8.46875 -9.765625 L 7.5625 -9.765625 C 7.394531 -9.765625 7.269531 -9.789062 7.1875 -9.84375 C 7.101562 -9.894531 7.035156 -9.992188 6.984375 -10.140625 C 6.941406 -10.285156 6.921875 -10.5 6.921875 -10.78125 C 6.921875 -11.050781 6.941406 -11.257812 6.984375 -11.40625 C 7.035156 -11.550781 7.101562 -11.648438 7.1875 -11.703125 C 7.269531 -11.765625 7.394531 -11.796875 7.5625 -11.796875 Z M 11.28125 -11.796875 "/></g></g><g transform="translate(181.914025, 18.548389)"><g><path d="M 10.28125 -11.796875 C 10.519531 -11.796875 10.6875 -11.742188 10.78125 -11.640625 C 10.882812 -11.546875 10.9375 -11.382812 10.9375 -11.15625 L 10.9375 -8.15625 C 10.9375 -7.925781 10.835938 -7.765625 10.640625 -7.671875 C 10.453125 -7.578125 10.144531 -7.53125 9.71875 -7.53125 C 9.3125 -7.53125 9.03125 -7.570312 8.875 -7.65625 C 8.726562 -7.75 8.65625 -7.914062 8.65625 -8.15625 L 8.65625 -9.65625 L 4.671875 -9.65625 L 4.671875 -7.140625 L 7.09375 -7.140625 C 7.332031 -7.140625 7.492188 -7.0625 7.578125 -6.90625 C 7.671875 -6.757812 7.71875 -6.484375 7.71875 -6.078125 C 7.71875 -5.660156 7.671875 -5.378906 7.578125 -5.234375 C 7.492188 -5.085938 7.332031 -5.015625 7.09375 -5.015625 L 4.671875 -5.015625 L 4.671875 -2.140625 L 8.75 -2.140625 L 8.75 -4.140625 C 8.75 -4.367188 8.84375 -4.53125 9.03125 -4.625 C 9.226562 -4.71875 9.550781 -4.765625 10 -4.765625 C 10.4375 -4.765625 10.734375 -4.71875 10.890625 -4.625 C 11.054688 -4.539062 11.140625 -4.378906 11.140625 -4.140625 L 11.140625 -0.640625 C 11.140625 -0.421875 11.085938 -0.257812 10.984375 -0.15625 C 10.878906 -0.0507812 10.710938 0 10.484375 0 L 1.21875 0 C 1.0625 0 0.9375 -0.0234375 0.84375 -0.078125 C 0.757812 -0.128906 0.695312 -0.226562 0.65625 -0.375 C 0.613281 -0.519531 0.59375 -0.734375 0.59375 -1.015625 C 0.59375 -1.296875 0.613281 -1.507812 0.65625 -1.65625 C 0.695312 -1.800781 0.757812 -1.898438 0.84375 -1.953125 C 0.9375 -2.003906 1.0625 -2.03125 1.21875 -2.03125 L 2.1875 -2.03125 L 2.1875 -9.765625 L 1.21875 -9.765625 C 1.0625 -9.765625 0.9375 -9.789062 0.84375 -9.84375 C 0.757812 -9.894531 0.695312 -9.992188 0.65625 -10.140625 C 0.613281 -10.285156 0.59375 -10.5 0.59375 -10.78125 C 0.59375 -11.050781 0.613281 -11.257812 0.65625 -11.40625 C 0.695312 -11.550781 0.757812 -11.648438 0.84375 -11.703125 C 0.9375 -11.765625 1.0625 -11.796875 1.21875 -11.796875 Z M 10.28125 -11.796875 "/></g></g><g transform="translate(194.126183, 18.548389)"><g><path d="M 11.78125 -11.796875 C 11.9375 -11.796875 12.054688 -11.765625 12.140625 -11.703125 C 12.234375 -11.648438 12.300781 -11.550781 12.34375 -11.40625 C 12.382812 -11.257812 12.40625 -11.050781 12.40625 -10.78125 C 12.40625 -10.5 12.382812 -10.285156 12.34375 -10.140625 C 12.300781 -9.992188 12.234375 -9.894531 12.140625 -9.84375 C 12.054688 -9.789062 11.9375 -9.765625 11.78125 -9.765625 L 11.21875 -9.765625 L 10.21875 -0.421875 C 10.195312 -0.253906 10.148438 -0.125 10.078125 -0.03125 C 10.003906 0.0507812 9.882812 0.113281 9.71875 0.15625 C 9.550781 0.195312 9.316406 0.21875 9.015625 0.21875 C 8.578125 0.21875 8.257812 0.164062 8.0625 0.0625 C 7.875 -0.03125 7.738281 -0.191406 7.65625 -0.421875 L 6.0625 -5.109375 L 4.453125 -0.421875 C 4.367188 -0.191406 4.226562 -0.03125 4.03125 0.0625 C 3.832031 0.164062 3.515625 0.21875 3.078125 0.21875 C 2.765625 0.21875 2.523438 0.195312 2.359375 0.15625 C 2.203125 0.113281 2.085938 0.0507812 2.015625 -0.03125 C 1.953125 -0.125 1.910156 -0.253906 1.890625 -0.421875 L 0.921875 -9.765625 L 0.421875 -9.765625 C 0.265625 -9.765625 0.144531 -9.789062 0.0625 -9.84375 C -0.0195312 -9.894531 -0.0820312 -9.992188 -0.125 -10.140625 C -0.175781 -10.285156 -0.203125 -10.5 -0.203125 -10.78125 C -0.203125 -11.050781 -0.175781 -11.257812 -0.125 -11.40625 C -0.0820312 -11.550781 -0.0195312 -11.648438 0.0625 -11.703125 C 0.144531 -11.765625 0.265625 -11.796875 0.421875 -11.796875 L 4.34375 -11.796875 C 4.5 -11.796875 4.617188 -11.765625 4.703125 -11.703125 C 4.796875 -11.648438 4.863281 -11.550781 4.90625 -11.40625 C 4.945312 -11.257812 4.96875 -11.050781 4.96875 -10.78125 C 4.96875 -10.5 4.945312 -10.285156 4.90625 -10.140625 C 4.863281 -9.992188 4.796875 -9.894531 4.703125 -9.84375 C 4.617188 -9.789062 4.5 -9.765625 4.34375 -9.765625 L 3.1875 -9.765625 L 3.703125 -3.953125 L 5.15625 -8.21875 C 5.207031 -8.363281 5.296875 -8.472656 5.421875 -8.546875 C 5.554688 -8.628906 5.78125 -8.671875 6.09375 -8.671875 C 6.425781 -8.671875 6.664062 -8.640625 6.8125 -8.578125 C 6.957031 -8.515625 7.050781 -8.414062 7.09375 -8.28125 L 8.546875 -3.953125 L 9.09375 -9.765625 L 8.0625 -9.765625 C 7.90625 -9.765625 7.78125 -9.789062 7.6875 -9.84375 C 7.601562 -9.894531 7.539062 -9.992188 7.5 -10.140625 C 7.457031 -10.285156 7.4375 -10.5 7.4375 -10.78125 C 7.4375 -11.050781 7.457031 -11.257812 7.5 -11.40625 C 7.539062 -11.550781 7.601562 -11.648438 7.6875 -11.703125 C 7.78125 -11.765625 7.90625 -11.796875 8.0625 -11.796875 Z M 11.78125 -11.796875 "/></g></g><g transform="translate(206.338341, 18.548389)"><g><path d="M 9.109375 -12.015625 C 9.535156 -12.015625 9.835938 -11.96875 10.015625 -11.875 C 10.191406 -11.78125 10.28125 -11.617188 10.28125 -11.390625 L 10.28125 -8.671875 C 10.28125 -8.441406 10.207031 -8.28125 10.0625 -8.1875 C 9.925781 -8.09375 9.691406 -8.046875 9.359375 -8.046875 C 9.140625 -8.046875 8.96875 -8.070312 8.84375 -8.125 C 8.71875 -8.175781 8.617188 -8.253906 8.546875 -8.359375 C 8.234375 -8.847656 7.832031 -9.226562 7.34375 -9.5 C 6.851562 -9.769531 6.285156 -9.90625 5.640625 -9.90625 C 5.160156 -9.90625 4.78125 -9.78125 4.5 -9.53125 C 4.226562 -9.289062 4.09375 -8.972656 4.09375 -8.578125 C 4.09375 -8.390625 4.148438 -8.234375 4.265625 -8.109375 C 4.390625 -7.984375 4.566406 -7.875 4.796875 -7.78125 C 5.085938 -7.664062 5.585938 -7.550781 6.296875 -7.4375 C 6.984375 -7.300781 7.546875 -7.175781 7.984375 -7.0625 C 8.421875 -6.945312 8.832031 -6.769531 9.21875 -6.53125 C 10.28125 -5.882812 10.8125 -4.847656 10.8125 -3.421875 C 10.8125 -2.691406 10.65625 -2.054688 10.34375 -1.515625 C 10.03125 -0.972656 9.566406 -0.546875 8.953125 -0.234375 C 8.335938 0.0664062 7.582031 0.21875 6.6875 0.21875 C 5.570312 0.21875 4.628906 -0.113281 3.859375 -0.78125 L 3.859375 -0.40625 C 3.859375 -0.175781 3.773438 -0.015625 3.609375 0.078125 C 3.453125 0.171875 3.164062 0.21875 2.75 0.21875 C 2.332031 0.21875 2.03125 0.171875 1.84375 0.078125 C 1.664062 -0.015625 1.578125 -0.175781 1.578125 -0.40625 L 1.578125 -3.734375 C 1.578125 -3.953125 1.648438 -4.109375 1.796875 -4.203125 C 1.941406 -4.304688 2.175781 -4.359375 2.5 -4.359375 C 2.726562 -4.359375 2.910156 -4.328125 3.046875 -4.265625 C 3.179688 -4.203125 3.285156 -4.097656 3.359375 -3.953125 C 3.710938 -3.273438 4.140625 -2.765625 4.640625 -2.421875 C 5.140625 -2.078125 5.71875 -1.90625 6.375 -1.90625 C 6.957031 -1.90625 7.398438 -2.019531 7.703125 -2.25 C 8.015625 -2.488281 8.171875 -2.820312 8.171875 -3.25 C 8.171875 -3.507812 8.101562 -3.726562 7.96875 -3.90625 C 7.832031 -4.09375 7.632812 -4.253906 7.375 -4.390625 C 7.164062 -4.492188 6.929688 -4.578125 6.671875 -4.640625 C 6.421875 -4.703125 6.046875 -4.789062 5.546875 -4.90625 C 4.972656 -5.019531 4.5 -5.125 4.125 -5.21875 C 3.757812 -5.320312 3.414062 -5.460938 3.09375 -5.640625 C 2.59375 -5.898438 2.195312 -6.25 1.90625 -6.6875 C 1.625 -7.132812 1.484375 -7.707031 1.484375 -8.40625 C 1.484375 -9.113281 1.644531 -9.738281 1.96875 -10.28125 C 2.289062 -10.832031 2.742188 -11.257812 3.328125 -11.5625 C 3.921875 -11.863281 4.59375 -12.015625 5.34375 -12.015625 C 5.875 -12.015625 6.363281 -11.925781 6.8125 -11.75 C 7.269531 -11.582031 7.664062 -11.34375 8 -11.03125 L 8 -11.390625 C 8 -11.617188 8.078125 -11.78125 8.234375 -11.875 C 8.398438 -11.96875 8.691406 -12.015625 9.109375 -12.015625 Z M 9.109375 -12.015625 "/></g></g></g></svg>